<svg version="1.1" id="Layer_1" xmlns="http://www.w3.org/2000/svg" xmlns:xlink="http://www.w3.org/1999/xlink" x="0px" y="0px"
	 width="100%" viewBox="0 0 500 500" enable-background="new 0 0 500 500" xml:space="preserve">
<path fill="#FFFFFF" opacity="1.000000" stroke="none" 
	d="
M228.000000,501.000000 
	C152.000015,501.000000 76.500038,501.000000 1.000041,501.000000 
	C1.000027,334.333405 1.000027,167.666779 1.000013,1.000130 
	C167.666565,1.000087 334.333130,1.000087 500.999756,1.000043 
	C500.999847,167.666534 500.999847,334.333069 500.999939,500.999817 
	C410.166656,501.000000 319.333344,501.000000 228.000000,501.000000 
M385.798920,224.016968 
	C403.363617,224.016968 420.928284,224.016968 438.502563,224.016968 
	C438.502563,205.620636 438.502563,187.933090 438.502563,170.284576 
	C420.218140,170.284576 402.330902,170.284576 384.051514,170.284576 
	C384.051514,188.375641 384.051514,206.141769 383.110413,223.982880 
	C365.491364,223.982880 347.872314,223.982880 330.091248,223.982880 
	C330.091248,242.211761 330.091248,259.922516 330.091248,278.018494 
	C346.869965,278.018494 363.337738,277.906708 379.800446,278.145294 
	C382.129456,278.179077 384.974854,279.354187 386.657959,280.965454 
	C394.960693,288.913879 402.946411,297.193115 411.055725,305.343964 
	C420.050262,314.384583 429.057526,323.412506 438.902557,333.292267 
	C438.902557,319.785492 438.002258,307.444977 439.152618,295.298706 
	C440.332642,282.839233 436.017242,274.280182 426.905884,266.026489 
	C412.246307,252.746857 398.798004,238.130127 385.798920,224.016968 
M200.973877,284.528351 
	C215.677094,299.978607 230.347946,315.459991 245.136795,330.827850 
	C246.519165,332.264282 248.638031,333.878998 250.430847,333.897827 
	C270.913757,334.113312 291.399780,334.034851 311.928589,334.034851 
	C311.928589,322.527283 311.928589,311.305969 311.928589,299.851898 
	C297.282593,299.851898 282.962280,299.931244 268.645020,299.757568 
	C266.723450,299.734283 264.355255,298.926819 262.983826,297.640320 
	C256.927094,291.958832 251.038727,286.084290 245.307068,280.072083 
	C214.155334,247.395630 183.070206,214.655701 151.948654,181.950439 
	C151.001999,180.955612 149.907135,180.101791 148.258286,178.623672 
	C148.258286,193.334061 148.470413,207.119644 148.157761,220.893280 
	C148.025772,226.707764 149.221207,230.881439 153.748398,235.349930 
	C169.750305,251.144318 184.967331,267.733917 200.973877,284.528351 
M172.656830,285.820770 
	C168.867371,282.090271 164.968582,278.463806 161.305771,274.612854 
	C132.277359,244.093369 103.296028,213.529144 74.288811,182.989487 
	C73.106384,181.744583 71.810089,180.607834 69.906181,178.789825 
	C69.906181,193.161865 70.191666,206.467834 69.784866,219.752594 
	C69.583656,226.323090 71.013672,231.076477 75.953011,236.151627 
	C106.496239,267.534515 136.481400,299.460358 166.715225,331.145477 
	C167.879150,332.365265 169.679581,333.723907 171.199249,333.742737 
	C186.604065,333.933929 202.012177,333.859467 218.681992,333.859467 
	C202.984756,317.473846 188.068100,301.903076 172.656830,285.820770 
M204.500488,170.311203 
	C197.949570,170.311203 191.398651,170.311203 183.664719,170.311203 
	C202.093582,189.539017 219.665619,207.872879 238.177979,227.187820 
	C238.177979,218.756882 238.177979,211.839325 238.177979,204.644073 
	C262.973236,204.644073 287.387909,204.644073 312.014832,204.644073 
	C312.014832,193.105728 312.014832,181.863541 312.014832,170.311218 
	C276.333710,170.311218 240.917038,170.311218 204.500488,170.311203 
M304.409180,271.983856 
	C306.897614,271.983856 309.386047,271.983856 311.870361,271.983856 
	C311.870361,260.337189 311.870361,248.959244 311.870361,237.660248 
	C287.411224,237.660248 263.345001,237.660248 238.622910,237.660248 
	C249.369980,248.929962 259.635223,259.779053 270.053802,270.478851 
	C271.015930,271.466949 272.949127,271.899963 274.440125,271.919312 
	C284.102509,272.044617 293.767334,271.983734 304.409180,271.983856 
M98.193428,307.301178 
	C89.052620,297.738892 79.911819,288.176575 70.305328,278.127136 
	C70.305328,297.194244 70.305328,315.464966 70.305328,333.594299 
	C88.001831,333.594299 105.296295,333.594299 123.487534,333.594299 
	C114.786201,324.563080 106.724007,316.195251 98.193428,307.301178 
z"/>
<path fill="#020202" opacity="1.000000" stroke="none" 
	d="
M200.727905,284.275208 
	C184.967331,267.733917 169.750305,251.144318 153.748398,235.349930 
	C149.221207,230.881439 148.025772,226.707764 148.157761,220.893280 
	C148.470413,207.119644 148.258286,193.334061 148.258286,178.623672 
	C149.907135,180.101791 151.001999,180.955612 151.948654,181.950439 
	C183.070206,214.655701 214.155334,247.395630 245.307068,280.072083 
	C251.038727,286.084290 256.927094,291.958832 262.983826,297.640320 
	C264.355255,298.926819 266.723450,299.734283 268.645020,299.757568 
	C282.962280,299.931244 297.282593,299.851898 311.928589,299.851898 
	C311.928589,311.305969 311.928589,322.527283 311.928589,334.034851 
	C291.399780,334.034851 270.913757,334.113312 250.430847,333.897827 
	C248.638031,333.878998 246.519165,332.264282 245.136795,330.827850 
	C230.347946,315.459991 215.677094,299.978607 200.727905,284.275208 
z"/>
<path fill="#39B6FF" opacity="1.000000" stroke="none" 
	d="
M172.904144,286.076538 
	C188.068100,301.903076 202.984756,317.473846 218.681992,333.859467 
	C202.012177,333.859467 186.604065,333.933929 171.199249,333.742737 
	C169.679581,333.723907 167.879150,332.365265 166.715225,331.145477 
	C136.481400,299.460358 106.496239,267.534515 75.953011,236.151627 
	C71.013672,231.076477 69.583656,226.323090 69.784866,219.752594 
	C70.191666,206.467834 69.906181,193.161865 69.906181,178.789825 
	C71.810089,180.607834 73.106384,181.744583 74.288811,182.989487 
	C103.296028,213.529144 132.277359,244.093369 161.305771,274.612854 
	C164.968582,278.463806 168.867371,282.090271 172.904144,286.076538 
z"/>
<path fill="#EB6027" opacity="1.000000" stroke="none" 
	d="
M384.837952,224.078308 
	C398.798004,238.130127 412.246307,252.746857 426.905884,266.026489 
	C436.017242,274.280182 440.332642,282.839233 439.152618,295.298706 
	C438.002258,307.444977 438.902557,319.785492 438.902557,333.292267 
	C429.057526,323.412506 420.050262,314.384583 411.055725,305.343964 
	C402.946411,297.193115 394.960693,288.913879 386.657959,280.965454 
	C384.974854,279.354187 382.129456,278.179077 379.800446,278.145294 
	C363.337738,277.906708 346.869965,278.018494 330.091248,278.018494 
	C330.091248,259.922516 330.091248,242.211761 330.091248,223.982880 
	C347.872314,223.982880 365.491364,223.982880 383.770264,224.020370 
	C384.430145,224.057861 384.837952,224.078308 384.837952,224.078308 
z"/>
<path fill="#050505" opacity="1.000000" stroke="none" 
	d="
M205.000427,170.311218 
	C240.917038,170.311218 276.333710,170.311218 312.014832,170.311218 
	C312.014832,181.863541 312.014832,193.105728 312.014832,204.644073 
	C287.387909,204.644073 262.973236,204.644073 238.177979,204.644073 
	C238.177979,211.839325 238.177979,218.756882 238.177979,227.187820 
	C219.665619,207.872879 202.093582,189.539017 183.664719,170.311203 
	C191.398651,170.311203 197.949570,170.311203 205.000427,170.311218 
z"/>
<path fill="#919283" opacity="1.000000" stroke="none" 
	d="
M385.318420,224.047638 
	C384.837952,224.078308 384.430145,224.057861 384.240845,223.982880 
	C384.051514,206.141769 384.051514,188.375641 384.051514,170.284576 
	C402.330902,170.284576 420.218140,170.284576 438.502563,170.284576 
	C438.502563,187.933090 438.502563,205.620636 438.502563,224.016968 
	C420.928284,224.016968 403.363617,224.016968 385.318420,224.047638 
z"/>
<path fill="#050505" opacity="1.000000" stroke="none" 
	d="
M303.920258,271.983856 
	C293.767334,271.983734 284.102509,272.044617 274.440125,271.919312 
	C272.949127,271.899963 271.015930,271.466949 270.053802,270.478851 
	C259.635223,259.779053 249.369980,248.929962 238.622910,237.660248 
	C263.345001,237.660248 287.411224,237.660248 311.870361,237.660248 
	C311.870361,248.959244 311.870361,260.337189 311.870361,271.983856 
	C309.386047,271.983856 306.897614,271.983856 303.920258,271.983856 
z"/>
<path fill="#39B6FF" opacity="1.000000" stroke="none" 
	d="
M98.427628,307.564301 
	C106.724007,316.195251 114.786201,324.563080 123.487534,333.594299 
	C105.296295,333.594299 88.001831,333.594299 70.305328,333.594299 
	C70.305328,315.464966 70.305328,297.194244 70.305328,278.127136 
	C79.911819,288.176575 89.052620,297.738892 98.427628,307.564301 
z"/>
</svg>