<svg xmlns="http://www.w3.org/2000/svg" xmlns:xlink="http://www.w3.org/1999/xlink" width="2000" zoomAndPan="magnify" viewBox="0 0 1500 1499.999933" height="2000" preserveAspectRatio="xMidYMid meet" version="1.0"><defs><clipPath id="d1f696bc9a"><path d="M 154 49.835938 L 1345.734375 49.835938 L 1345.734375 1449 L 154 1449 Z M 154 49.835938 " clip-rule="nonzero"/></clipPath><clipPath id="3e1d142129"><path d="M 1031 750 L 1134 750 L 1134 889 L 1031 889 Z M 1031 750 " clip-rule="nonzero"/></clipPath><clipPath id="d1fd1275cf"><path d="M 819.140625 1263 L 915 1263 L 915 1293 L 819.140625 1293 Z M 819.140625 1263 " clip-rule="nonzero"/></clipPath></defs><g clip-path="url(#d1f696bc9a)"><path fill="#000000" d="M 596.757812 1222.601562 C 564.867188 1137.96875 554.792969 1051.007812 574.203125 961.191406 C 552.273438 959.296875 469.484375 971.296875 378.125 894.929688 C 355.976562 876.417969 357.402344 882.921875 373.789062 859.519531 C 383.574219 845.539062 392.074219 830.652344 401.152344 816.175781 C 389.472656 813.515625 395.585938 818.550781 325.019531 814.308594 C 314.417969 813.671875 309.820312 808.039062 315.484375 797.183594 C 358.464844 714.84375 342.472656 742.878906 358.941406 715.09375 C 334.988281 722.234375 314.238281 727.984375 291.117188 726.226562 C 310.019531 686.339844 336.800781 654.308594 367.75 621.628906 C 340.238281 623.304688 316.664062 627.347656 291.65625 619.394531 C 313.378906 599.585938 333.074219 581.496094 352.996094 563.65625 C 359.578125 557.761719 356.996094 558.449219 415.3125 581.578125 C 326.015625 746.398438 520.195312 866.117188 630.660156 763.707031 C 578.648438 831.691406 481.890625 843.894531 405.738281 766.566406 C 399.050781 759.773438 403.605469 763.414062 392.765625 754.011719 C 411.640625 786.035156 445.863281 840.503906 484.019531 852.027344 C 562.121094 875.613281 642.878906 829.164062 660.023438 749.253906 C 664.859375 726.714844 663.878906 702.925781 665.730469 677.394531 L 715.9375 677.394531 C 708.578125 665.726562 679.699219 674.558594 613.21875 636.277344 C 432.40625 532.15625 282.613281 351.28125 195.691406 50.292969 C 190.851562 56.652344 192.007812 50.277344 192.363281 216.386719 C 192.503906 283.957031 214.347656 343.847656 256.628906 396.367188 C 264.355469 405.960938 272.542969 415.179688 280.515625 424.574219 C 230.164062 392.847656 190.546875 350.09375 154.035156 304.015625 C 175.53125 395.863281 219.746094 473.089844 297.253906 528.96875 C 246.347656 619.480469 212.355469 712.554688 247.183594 842.011719 C 249.558594 850.832031 248.136719 856.59375 242.992188 863.914062 C 186.171875 944.761719 184.621094 1031.679688 216.265625 1094.109375 C 230.253906 1028.136719 263.953125 977.859375 312.179688 936.445312 C 264.460938 1015.40625 244.480469 1109.496094 270.554688 1198 C 303.425781 1131.371094 342.96875 1069.957031 392.945312 1014.878906 C 354.742188 1121.363281 363.851562 1272.074219 424.59375 1365.910156 C 432.3125 1318.054688 431.621094 1306.554688 450.910156 1245.242188 C 479.480469 1154.429688 507.941406 1104.144531 520.269531 1079.601562 C 521.570312 1116.496094 485.417969 1268.375 636.195312 1421.820312 C 651.910156 1437.816406 669.953125 1446.515625 691.96875 1447.578125 C 729.65625 1449.398438 726.425781 1447.871094 737.097656 1446.007812 C 668.875 1383.277344 628.09375 1305.753906 596.757812 1222.601562 Z M 433.097656 642.273438 C 436.117188 626.933594 445.660156 612.878906 452.210938 598.234375 L 495.101562 611.53125 C 474.621094 638.386719 467.839844 664.945312 486.09375 692.464844 C 499.949219 713.351562 521.0625 721.675781 545.59375 716.269531 C 576.101562 709.546875 590.109375 687.457031 594.539062 656.839844 C 606.625 660.773438 618.304688 663.945312 629.355469 668.609375 C 648.992188 676.894531 605.652344 780.371094 513.683594 762.726562 C 459.542969 752.339844 422.160156 697.855469 433.097656 642.273438 Z M 1252.429688 841.773438 C 1295.71875 687.160156 1227 575.105469 1204.652344 527.023438 C 1280.683594 472.144531 1325.527344 395.773438 1345.75 303.808594 C 1311.820312 339.984375 1306.328125 359.789062 1219.117188 427.140625 C 1222.515625 411.609375 1307.132812 345.46875 1306.273438 215.027344 C 1305.945312 165.429688 1306.089844 55.308594 1306.089844 49.847656 C 1282.480469 61.925781 1254.679688 355.855469 972.441406 579.375 C 839.441406 684.710938 780.957031 663.558594 782.34375 677.546875 L 838.203125 677.546875 C 818.09375 845.960938 985.695312 909.902344 1067.433594 813.671875 C 1080.035156 798.839844 1091.117188 782.707031 1102.648438 766.992188 C 1105.226562 763.480469 1106.773438 759.210938 1108.792969 755.289062 C 1075.914062 789.503906 1040.152344 816.769531 991.15625 818.96875 C 942.011719 821.175781 884.839844 794.8125 873.507812 766.167969 C 991.261719 866.632812 1174.515625 738.628906 1084.882812 581.035156 C 1102.945312 573.875 1119.761719 566.875 1136.894531 560.753906 C 1144.542969 558.023438 1150.726562 568.632812 1206.675781 618.46875 L 1205.378906 622.074219 L 1132.707031 622.074219 C 1185.285156 683.128906 1165.355469 655.945312 1208.445312 724.035156 L 1205.597656 728.496094 L 1141.160156 716.632812 C 1148.089844 726.871094 1142.777344 715.792969 1184.621094 799.042969 C 1189.210938 808.167969 1185.058594 813.0625 1175.957031 814.085938 C 1123.714844 819.964844 1130.347656 817.476562 1098.550781 813.796875 L 1139.097656 879.839844 C 1085.714844 933.117188 1014.398438 963.511719 926.894531 961.085938 C 955.835938 1151.5625 889.324219 1308.121094 767.328125 1446.558594 C 788.6875 1446.558594 828.503906 1450.101562 844.894531 1436.429688 C 943.765625 1353.964844 998.335938 1227.59375 977.234375 1080.445312 C 1024.539062 1169.167969 1059.410156 1261.9375 1074.832031 1362.066406 C 1137.375 1250.859375 1141.761719 1134.347656 1107.601562 1013.726562 C 1156.867188 1069.554688 1196.417969 1131.574219 1228.523438 1198.804688 C 1251.953125 1105.195312 1237 1018.011719 1187.195312 936.078125 C 1236.003906 977.488281 1269.351562 1028.109375 1283.128906 1093.453125 C 1315.546875 1028.480469 1312.382812 943.320312 1256.226562 863.863281 C 1250.808594 856.199219 1250.0625 850.222656 1252.429688 841.773438 Z M 1055.355469 714.042969 C 1032.484375 752.503906 997.542969 769.21875 953.40625 763.195312 C 912.9375 757.667969 885.601562 734.117188 871.238281 695.875 C 868.289062 688.023438 866.40625 679.769531 863.761719 670.769531 L 906.410156 656.511719 C 909.460938 687.234375 923.410156 708.03125 951.816406 715.386719 C 975.082031 721.410156 996.84375 715.902344 1012.003906 696.089844 C 1033.566406 667.910156 1027.53125 639.941406 1007.066406 612.796875 C 1020.410156 607.921875 1032.414062 603.183594 1044.703125 599.363281 C 1046.953125 598.664062 1051.738281 600.902344 1053.03125 603.132812 C 1074.203125 639.59375 1077.371094 677.023438 1055.355469 714.042969 Z M 337.679688 122.863281 C 341.566406 152.882812 312.730469 243.335938 456.335938 327.546875 C 460.519531 330 467.472656 330.644531 472.082031 329.035156 C 652.496094 266.121094 871.664062 273.371094 1022.121094 325.992188 C 1034.0625 330.167969 1043.332031 328.839844 1053.828125 322.3125 C 1141.109375 268.042969 1168.460938 202.460938 1161.105469 137.609375 C 1159.765625 125.789062 1159.644531 127.175781 1163.46875 125.621094 C 1167.113281 134.398438 1171.609375 142.925781 1174.265625 151.992188 C 1206.695312 262.804688 1132.199219 348.085938 1031.285156 404.15625 C 1028.976562 405.441406 1026.769531 406.90625 1025.066406 411.085938 L 1110.742188 404.917969 C 1088.996094 420.890625 855.914062 583.136719 758.933594 650.015625 C 754.28125 653.226562 751.042969 654.84375 745.195312 650.769531 C 646.199219 581.816406 412.367188 419.386719 391.832031 404.796875 L 479.277344 411.132812 L 480.132812 408.5625 C 472.1875 404.246094 464.09375 400.175781 456.3125 395.566406 C 348.015625 331.417969 275.039062 228.238281 337.679688 122.863281 Z M 749.925781 1003.441406 C 744.8125 992.625 700.566406 894.816406 682.503906 853.996094 C 680.96875 850.53125 679.40625 845.816406 680.535156 842.625 C 692.949219 807.492188 705.894531 772.542969 721.566406 737.324219 L 749.160156 897.074219 L 752.078125 897.074219 L 778.914062 736.253906 L 781.222656 735.894531 C 785.191406 746.734375 809.914062 815.023438 818.027344 838.421875 C 821.976562 849.808594 823.429688 841.066406 749.925781 1003.441406 Z M 491 1215.546875 C 491.5 1291.621094 501.75 1364.359375 559.1875 1425.042969 C 525.09375 1416.042969 498.132812 1397.492188 481.054688 1377.074219 C 462.824219 1355.289062 449.515625 1333.316406 462.617188 1302.371094 C 478.035156 1265.941406 481.695312 1227.839844 491 1215.546875 Z M 1040.972656 1339.265625 C 1022.597656 1383.066406 988.621094 1409.226562 944.546875 1423.765625 C 943.972656 1423.953125 943.117188 1423.296875 941.1875 1422.601562 C 997.589844 1365.359375 1000.585938 1307.191406 1007.992188 1215.644531 C 1009.195312 1218.277344 1010.75 1220.804688 1011.546875 1223.550781 C 1044.039062 1335.390625 1043.929688 1332.214844 1040.972656 1339.265625 Z M 809.207031 1180.636719 C 863.261719 1142.988281 890.070312 1091.136719 890.6875 1028.828125 C 916.554688 1070.101562 887.464844 1181.820312 840.089844 1227.0625 Z M 604.757812 1029.636719 C 609.066406 1093.175781 636.171875 1143.898438 689.15625 1180.511719 L 658.695312 1228.246094 C 613.171875 1168.078125 587.265625 1104.945312 604.757812 1029.636719 Z M 1208.449219 1211.539062 C 1209.582031 1214.308594 1209.859375 1218.019531 1209.074219 1220.894531 C 1198.480469 1259.773438 1177.605469 1291.558594 1145.507812 1313.683594 C 1164.277344 1234.0625 1177.820312 1208.785156 1159.71875 1131.851562 C 1180.835938 1155.792969 1196.546875 1182.546875 1208.449219 1211.539062 Z M 356.960938 1311.949219 C 340.773438 1306.179688 318.351562 1284.796875 307.449219 1262.363281 C 282.539062 1211.105469 285.238281 1220.609375 308.199219 1176.4375 C 316.308594 1160.832031 326.925781 1146.527344 336.398438 1131.628906 L 339.628906 1133.40625 C 326.351562 1194.648438 330.519531 1254.222656 356.960938 1311.949219 Z M 356.960938 1311.949219 " fill-opacity="1" fill-rule="nonzero"/></g><path fill="#ffffff" d="M 1119.214844 873.550781 L 1119.214844 873.566406 C 1095.300781 865.179688 1069.558594 865.207031 1045.816406 873.566406 L 1045.816406 873.550781 C 1003.058594 888.644531 972.421875 929.410156 972.421875 977.300781 C 972.421875 1006.476562 983.785156 1033.011719 1002.355469 1052.699219 L 1002.367188 1052.683594 C 1019.25 1070.609375 1042.074219 1082.839844 1067.691406 1086.289062 L 1067.675781 1086.316406 C 1077.464844 1087.648438 1087.578125 1087.648438 1097.339844 1086.316406 L 1097.328125 1086.289062 C 1122.941406 1082.839844 1145.765625 1070.609375 1162.648438 1052.683594 L 1162.664062 1052.710938 C 1181.214844 1033.027344 1192.609375 1006.492188 1192.609375 977.300781 C 1192.609375 929.410156 1161.972656 888.660156 1119.214844 873.550781 Z M 1119.214844 873.550781 " fill-opacity="1" fill-rule="nonzero"/><path fill="#b6d9ff" d="M 1119.214844 801.28125 L 1119.214844 873.550781 C 1095.707031 865.210938 1069.261719 865.199219 1045.816406 873.550781 L 1045.816406 801.28125 C 1045.816406 781.023438 1062.242188 764.609375 1082.515625 764.609375 C 1102.773438 764.609375 1119.214844 781.023438 1119.214844 801.28125 Z M 1119.214844 801.28125 " fill-opacity="1" fill-rule="nonzero"/><path fill="#b6d9ff" d="M 1119.214844 977.300781 C 1119.214844 978.503906 1119.152344 979.699219 1119.035156 980.894531 C 1118.917969 982.089844 1118.742188 983.277344 1118.507812 984.457031 C 1118.273438 985.632812 1117.980469 986.796875 1117.632812 987.945312 C 1117.285156 989.097656 1116.878906 990.226562 1116.417969 991.335938 C 1115.960938 992.445312 1115.445312 993.527344 1114.878906 994.589844 C 1114.3125 995.648438 1113.695312 996.675781 1113.027344 997.675781 C 1112.359375 998.671875 1111.644531 999.636719 1110.882812 1000.566406 C 1110.121094 1001.492188 1109.3125 1002.382812 1108.464844 1003.230469 C 1107.613281 1004.082031 1106.726562 1004.886719 1105.796875 1005.648438 C 1104.867188 1006.410156 1103.902344 1007.125 1102.902344 1007.792969 C 1101.902344 1008.460938 1100.875 1009.078125 1099.816406 1009.640625 C 1098.753906 1010.207031 1097.667969 1010.722656 1096.558594 1011.179688 C 1095.449219 1011.640625 1094.316406 1012.042969 1093.167969 1012.394531 C 1092.019531 1012.742188 1090.855469 1013.035156 1089.675781 1013.269531 C 1088.496094 1013.503906 1087.308594 1013.679688 1086.113281 1013.796875 C 1084.917969 1013.914062 1083.71875 1013.972656 1082.515625 1013.972656 C 1081.3125 1013.972656 1080.113281 1013.914062 1078.917969 1013.796875 C 1077.722656 1013.679688 1076.535156 1013.503906 1075.355469 1013.269531 C 1074.175781 1013.035156 1073.011719 1012.742188 1071.863281 1012.394531 C 1070.710938 1012.046875 1069.582031 1011.640625 1068.472656 1011.179688 C 1067.363281 1010.722656 1066.277344 1010.207031 1065.214844 1009.640625 C 1064.15625 1009.078125 1063.128906 1008.460938 1062.128906 1007.792969 C 1061.128906 1007.125 1060.164062 1006.410156 1059.234375 1005.648438 C 1058.304688 1004.886719 1057.417969 1004.082031 1056.566406 1003.230469 C 1055.714844 1002.382812 1054.910156 1001.492188 1054.148438 1000.566406 C 1053.386719 999.636719 1052.671875 998.671875 1052.003906 997.675781 C 1051.335938 996.675781 1050.71875 995.648438 1050.152344 994.589844 C 1049.585938 993.527344 1049.070312 992.445312 1048.613281 991.335938 C 1048.152344 990.226562 1047.746094 989.097656 1047.398438 987.945312 C 1047.050781 986.796875 1046.757812 985.632812 1046.523438 984.457031 C 1046.289062 983.277344 1046.113281 982.089844 1045.996094 980.894531 C 1045.878906 979.699219 1045.816406 978.503906 1045.816406 977.300781 C 1045.816406 976.101562 1045.878906 974.902344 1045.996094 973.707031 C 1046.113281 972.511719 1046.289062 971.324219 1046.523438 970.148438 C 1046.757812 968.96875 1047.050781 967.804688 1047.398438 966.65625 C 1047.746094 965.507812 1048.152344 964.378906 1048.613281 963.269531 C 1049.070312 962.160156 1049.585938 961.074219 1050.152344 960.015625 C 1050.71875 958.957031 1051.335938 957.925781 1052.003906 956.929688 C 1052.671875 955.929688 1053.386719 954.964844 1054.148438 954.039062 C 1054.910156 953.109375 1055.714844 952.21875 1056.566406 951.371094 C 1057.417969 950.523438 1058.304688 949.714844 1059.234375 948.953125 C 1060.164062 948.191406 1061.128906 947.476562 1062.128906 946.808594 C 1063.128906 946.144531 1064.15625 945.527344 1065.214844 944.960938 C 1066.277344 944.394531 1067.363281 943.882812 1068.472656 943.421875 C 1069.582031 942.960938 1070.710938 942.558594 1071.863281 942.210938 C 1073.011719 941.859375 1074.175781 941.570312 1075.355469 941.335938 C 1076.535156 941.101562 1077.722656 940.925781 1078.917969 940.808594 C 1080.113281 940.6875 1081.3125 940.628906 1082.515625 940.628906 C 1083.71875 940.628906 1084.917969 940.6875 1086.113281 940.808594 C 1087.308594 940.925781 1088.496094 941.101562 1089.675781 941.335938 C 1090.855469 941.570312 1092.019531 941.859375 1093.167969 942.210938 C 1094.316406 942.558594 1095.449219 942.960938 1096.558594 943.421875 C 1097.667969 943.882812 1098.753906 944.394531 1099.816406 944.960938 C 1100.875 945.527344 1101.902344 946.144531 1102.902344 946.808594 C 1103.902344 947.476562 1104.867188 948.191406 1105.796875 948.953125 C 1106.726562 949.714844 1107.613281 950.523438 1108.464844 951.371094 C 1109.3125 952.21875 1110.121094 953.109375 1110.882812 954.039062 C 1111.644531 954.964844 1112.359375 955.929688 1113.027344 956.929688 C 1113.695312 957.925781 1114.3125 958.957031 1114.878906 960.015625 C 1115.445312 961.074219 1115.960938 962.160156 1116.417969 963.269531 C 1116.878906 964.378906 1117.285156 965.507812 1117.632812 966.65625 C 1117.980469 967.804688 1118.273438 968.96875 1118.507812 970.148438 C 1118.742188 971.324219 1118.917969 972.511719 1119.035156 973.707031 C 1119.152344 974.902344 1119.214844 976.101562 1119.214844 977.300781 Z M 1119.214844 977.300781 " fill-opacity="1" fill-rule="nonzero"/><path fill="#b6d9ff" d="M 1097.339844 1086.316406 C 1122.957031 1082.886719 1145.78125 1070.621094 1162.664062 1052.710938 L 1285.890625 1322.640625 C 1294.222656 1340.800781 1286.382812 1362.738281 1267.734375 1371.222656 C 1249.296875 1379.628906 1227.527344 1371.503906 1219.117188 1353.078125 C 1217.289062 1349.070312 1097.867188 1087.46875 1097.339844 1086.316406 Z M 1097.339844 1086.316406 " fill-opacity="1" fill-rule="nonzero"/><path fill="#b6d9ff" d="M 1067.675781 1086.316406 C 1066.992188 1087.8125 948.023438 1348.425781 945.898438 1353.078125 C 937.519531 1371.414062 915.828125 1379.664062 897.28125 1371.222656 C 878.832031 1362.820312 870.714844 1341.066406 879.125 1322.640625 C 879.191406 1322.492188 996.5 1065.539062 1002.355469 1052.710938 C 1019.234375 1070.621094 1042.058594 1082.886719 1067.675781 1086.316406 Z M 1067.675781 1086.316406 " fill-opacity="1" fill-rule="nonzero"/><path fill="#086ed8" d="M 1082.515625 1028.640625 C 1054.1875 1028.640625 1031.140625 1005.609375 1031.140625 977.300781 C 1031.140625 948.992188 1054.1875 925.960938 1082.515625 925.960938 C 1110.84375 925.960938 1133.890625 948.992188 1133.890625 977.300781 C 1133.890625 1005.609375 1110.84375 1028.640625 1082.515625 1028.640625 Z M 1082.515625 955.296875 C 1070.375 955.296875 1060.496094 965.167969 1060.496094 977.300781 C 1060.496094 989.433594 1070.375 999.300781 1082.515625 999.300781 C 1094.65625 999.300781 1104.535156 989.433594 1104.535156 977.300781 C 1104.535156 965.167969 1094.65625 955.296875 1082.515625 955.296875 Z M 1082.515625 955.296875 " fill-opacity="1" fill-rule="nonzero"/><g clip-path="url(#3e1d142129)"><path fill="#086ed8" d="M 1037.335938 885.535156 C 1033.453125 882.789062 1031.140625 878.324219 1031.140625 873.566406 L 1031.140625 801.28125 C 1031.140625 772.972656 1054.1875 749.941406 1082.515625 749.941406 C 1110.84375 749.941406 1133.890625 772.972656 1133.890625 801.28125 L 1133.890625 873.550781 C 1133.890625 883.742188 1123.816406 890.71875 1114.355469 887.40625 C 1107.53125 885.015625 1101.132812 883.574219 1094.808594 882.738281 C 1088.683594 881.925781 1083.945312 877.445312 1082.507812 871.804688 C 1081.074219 877.445312 1076.335938 881.925781 1070.207031 882.738281 C 1063.601562 883.609375 1057.242188 885.09375 1050.691406 887.402344 C 1049.105469 887.960938 1041.238281 888.300781 1037.335938 885.535156 Z M 1082.507812 864.597656 C 1084.304688 857.46875 1091.214844 852.660156 1098.671875 853.65625 C 1100.933594 853.957031 1103.359375 854.347656 1104.535156 854.5625 L 1104.535156 801.277344 C 1104.535156 789.144531 1094.65625 779.273438 1082.515625 779.273438 C 1070.375 779.273438 1060.496094 789.144531 1060.496094 801.277344 L 1060.496094 854.558594 C 1062.03125 854.28125 1064.144531 853.945312 1066.34375 853.65625 C 1073.734375 852.667969 1080.695312 857.402344 1082.507812 864.597656 Z M 1082.507812 864.597656 " fill-opacity="1" fill-rule="nonzero"/></g><path fill="#086ed8" d="M 1092.785156 882.511719 C 1092.394531 882.46875 1092.007812 882.421875 1091.609375 882.390625 C 1083.527344 881.730469 1077.515625 874.648438 1078.175781 866.574219 C 1078.835938 858.5 1085.929688 852.496094 1094 853.152344 C 1094.6875 853.207031 1095.359375 853.28125 1096.027344 853.355469 C 1104.085938 854.25 1109.890625 861.503906 1108.996094 869.554688 C 1108.09375 877.652344 1100.785156 883.40625 1092.785156 882.511719 Z M 1092.785156 882.511719 " fill-opacity="1" fill-rule="nonzero"/><path fill="#086ed8" d="M 1090.503906 882.285156 L 1089.257812 882.199219 C 1081.171875 881.636719 1075.074219 874.628906 1075.636719 866.546875 C 1076.199219 858.464844 1083.179688 852.351562 1091.300781 852.933594 L 1092.550781 853.019531 C 1100.640625 853.585938 1106.738281 860.597656 1106.171875 868.675781 C 1105.605469 876.773438 1098.574219 882.847656 1090.503906 882.285156 Z M 1090.503906 882.285156 " fill-opacity="1" fill-rule="nonzero"/><path fill="#086ed8" d="M 1086.851562 882.050781 C 1086.480469 882.027344 1085.417969 882.003906 1084.546875 881.980469 C 1076.441406 881.773438 1070.039062 875.039062 1070.25 866.941406 C 1070.453125 858.96875 1076.984375 852.648438 1084.914062 852.648438 C 1085.570312 852.648438 1087.898438 852.714844 1088.921875 852.789062 C 1097.011719 853.359375 1103.101562 860.375 1102.53125 868.457031 C 1101.957031 876.574219 1094.878906 882.636719 1086.851562 882.050781 Z M 1086.851562 882.050781 " fill-opacity="1" fill-rule="nonzero"/><path fill="#086ed8" d="M 1062.5 868.453125 C 1061.929688 860.371094 1068.019531 853.359375 1076.109375 852.785156 C 1077.265625 852.707031 1078.6875 852.683594 1079.734375 852.652344 C 1087.96875 852.472656 1094.578125 858.933594 1094.785156 866.9375 C 1094.992188 875.035156 1088.589844 881.769531 1080.488281 881.980469 C 1079.632812 882 1078.535156 882.027344 1078.179688 882.050781 C 1070.15625 882.640625 1063.074219 876.574219 1062.5 868.453125 Z M 1062.5 868.453125 " fill-opacity="1" fill-rule="nonzero"/><path fill="#086ed8" d="M 1058.859375 868.675781 C 1058.292969 860.597656 1064.394531 853.585938 1072.480469 853.019531 L 1073.765625 852.929688 C 1081.839844 852.363281 1088.851562 858.496094 1089.394531 866.582031 C 1089.941406 874.664062 1083.824219 881.65625 1075.734375 882.199219 L 1074.527344 882.285156 C 1066.472656 882.851562 1059.425781 876.785156 1058.859375 868.675781 Z M 1058.859375 868.675781 " fill-opacity="1" fill-rule="nonzero"/><path fill="#086ed8" d="M 1056.023438 869.550781 C 1055.125 861.5 1060.933594 854.246094 1068.988281 853.355469 L 1070.609375 867.929688 L 1069.132812 853.339844 C 1069.742188 853.269531 1070.339844 853.203125 1070.949219 853.152344 C 1079.007812 852.484375 1086.128906 858.464844 1086.808594 866.539062 C 1087.488281 874.613281 1081.492188 881.707031 1073.414062 882.386719 C 1073.136719 882.410156 1072.769531 882.449219 1072.230469 882.511719 C 1064.21875 883.410156 1056.921875 877.640625 1056.023438 869.550781 Z M 1056.023438 869.550781 " fill-opacity="1" fill-rule="nonzero"/><g clip-path="url(#d1fd1275cf)"><path fill="#086ed8" d="M 899.5 1292.671875 L 834.265625 1292.671875 C 826.160156 1292.671875 819.585938 1286.105469 819.585938 1278.003906 C 819.585938 1269.902344 826.160156 1263.335938 834.265625 1263.335938 L 899.5 1263.335938 C 907.605469 1263.335938 914.175781 1269.902344 914.175781 1278.003906 C 914.175781 1286.105469 907.605469 1292.671875 899.5 1292.671875 Z M 899.5 1292.671875 " fill-opacity="1" fill-rule="nonzero"/></g><path fill="#086ed8" d="M 1331.117188 1292.671875 L 1265.53125 1292.671875 C 1257.425781 1292.671875 1250.855469 1286.105469 1250.855469 1278.003906 C 1250.855469 1269.902344 1257.425781 1263.335938 1265.53125 1263.335938 L 1331.121094 1263.335938 C 1339.226562 1263.335938 1345.796875 1269.902344 1345.796875 1278.003906 C 1345.796875 1286.105469 1339.226562 1292.671875 1331.117188 1292.671875 Z M 1331.117188 1292.671875 " fill-opacity="1" fill-rule="nonzero"/><path fill="#086ed8" d="M 1184.855469 1292.671875 L 980.175781 1292.671875 C 972.066406 1292.671875 965.496094 1286.105469 965.496094 1278.003906 C 965.496094 1269.902344 972.066406 1263.335938 980.175781 1263.335938 L 1184.84375 1263.335938 C 1192.949219 1263.335938 1199.527344 1269.902344 1199.527344 1278.003906 C 1199.527344 1286.105469 1192.960938 1292.671875 1184.855469 1292.671875 Z M 1184.855469 1292.671875 " fill-opacity="1" fill-rule="nonzero"/><path fill="#086ed8" d="M 891.199219 1384.574219 C 865.371094 1372.808594 853.972656 1342.394531 865.769531 1316.554688 L 988.796875 1047.066406 C 992.824219 1037.351562 1005.714844 1034.828125 1013.058594 1042.628906 C 1028.015625 1058.511719 1048.113281 1068.851562 1069.652344 1071.753906 C 1079.515625 1073.078125 1085.230469 1083.652344 1080.933594 1092.621094 L 959.253906 1359.167969 C 947.625 1384.621094 917.316406 1396.453125 891.199219 1384.574219 Z M 1007.464844 1076.859375 L 892.480469 1328.726562 C 887.429688 1339.796875 892.292969 1352.828125 903.371094 1357.875 C 914.65625 1363.007812 927.597656 1357.820312 932.542969 1346.988281 L 1046.785156 1096.734375 C 1032.625 1092.496094 1019.289062 1085.753906 1007.464844 1076.859375 Z M 1007.464844 1076.859375 " fill-opacity="1" fill-rule="nonzero"/><path fill="#086ed8" d="M 1234.53125 1385.953125 C 1221.675781 1381.152344 1211.457031 1371.640625 1205.765625 1359.167969 L 1084.007812 1092.449219 C 1079.855469 1083.4375 1085.664062 1073.054688 1095.367188 1071.75 C 1116.90625 1068.851562 1137.003906 1058.511719 1151.957031 1042.628906 C 1159.082031 1035.066406 1171.679688 1037.089844 1176.019531 1046.625 L 1299.246094 1316.554688 C 1311.074219 1342.332031 1299.511719 1372.878906 1273.820312 1384.574219 C 1267.019531 1387.671875 1247.503906 1390.796875 1234.53125 1385.953125 Z M 1118.230469 1096.738281 L 1232.472656 1346.988281 C 1237.523438 1358.054688 1250.570312 1362.921875 1261.640625 1357.878906 C 1261.640625 1357.878906 1261.648438 1357.875 1261.648438 1357.875 C 1272.625 1352.878906 1277.617188 1339.800781 1272.550781 1328.753906 L 1157.554688 1076.859375 C 1145.730469 1085.753906 1132.390625 1092.496094 1118.230469 1096.738281 Z M 1118.230469 1096.738281 " fill-opacity="1" fill-rule="nonzero"/><path fill="#086ed8" d="M 957.746094 977.300781 C 957.746094 918.277344 999.289062 867.683594 1055.863281 855.480469 C 1060.796875 854.339844 1068.15625 853.316406 1072.5 853.019531 C 1090.585938 851.574219 1108.226562 854.085938 1124.105469 859.71875 C 1173.859375 877.300781 1207.285156 924.550781 1207.285156 977.296875 C 1207.285156 1040.96875 1159.726562 1092.757812 1099.292969 1100.851562 C 1024.625 1111.03125 957.746094 1052.976562 957.746094 977.300781 Z M 1151.976562 1042.652344 C 1168.710938 1024.898438 1177.929688 1001.6875 1177.929688 977.300781 C 1177.929688 936.957031 1152.367188 900.824219 1114.320312 887.378906 C 1112.710938 886.878906 1112.121094 886.417969 1104.566406 884.523438 C 1101.296875 883.691406 1095.023438 882.609375 1090.492188 882.285156 C 1032.34375 877.855469 987.101562 923.609375 987.101562 977.300781 C 987.101562 1001.703125 996.3125 1024.90625 1013.035156 1042.636719 C 1050.757812 1082.664062 1114.304688 1082.625 1151.976562 1042.652344 Z M 1151.976562 1042.652344 " fill-opacity="1" fill-rule="nonzero"/><path fill="#086ed8" d="M 1313.339844 1489.988281 L 1254.726562 1378.023438 C 1250.96875 1370.84375 1253.746094 1361.980469 1260.929688 1358.226562 C 1268.117188 1354.472656 1276.984375 1357.246094 1280.738281 1364.425781 L 1339.355469 1476.390625 C 1343.113281 1483.570312 1340.335938 1492.429688 1333.152344 1496.1875 C 1325.953125 1499.949219 1317.089844 1497.152344 1313.339844 1489.988281 Z M 1313.339844 1489.988281 " fill-opacity="1" fill-rule="nonzero"/><path fill="#086ed8" d="M 831.753906 1496.179688 C 824.574219 1492.421875 821.804688 1483.554688 825.566406 1476.378906 L 884.28125 1364.417969 C 888.042969 1357.242188 896.917969 1354.476562 904.097656 1358.230469 C 911.277344 1361.992188 914.046875 1370.859375 910.285156 1378.03125 L 851.570312 1489.996094 C 847.824219 1497.136719 838.96875 1499.957031 831.753906 1496.179688 Z M 831.753906 1496.179688 " fill-opacity="1" fill-rule="nonzero"/><path fill="#086ed8" d="M 1082.515625 1322.347656 C 1074.410156 1322.347656 1067.835938 1315.78125 1067.835938 1307.679688 L 1067.835938 1248.316406 C 1067.835938 1240.214844 1074.410156 1233.648438 1082.515625 1233.648438 C 1090.621094 1233.648438 1097.195312 1240.214844 1097.195312 1248.316406 L 1097.195312 1307.679688 C 1097.195312 1315.78125 1090.621094 1322.347656 1082.515625 1322.347656 Z M 1082.515625 1322.347656 " fill-opacity="1" fill-rule="nonzero"/></svg>